<svg width="80" height="50" viewBox="0 0 167 167" fill="none" xmlns="http://www.w3.org/2000/svg">
<path d="M145.989 131.634V131.891H146.228C146.273 131.892 146.318 131.88 146.357 131.858C146.372 131.847 146.385 131.832 146.393 131.815C146.402 131.798 146.406 131.779 146.405 131.76C146.406 131.741 146.402 131.722 146.393 131.706C146.385 131.689 146.372 131.674 146.357 131.664C146.318 131.641 146.273 131.629 146.228 131.631H145.989V131.634ZM146.231 131.452C146.334 131.446 146.435 131.475 146.519 131.535C146.552 131.563 146.579 131.598 146.596 131.637C146.614 131.677 146.622 131.72 146.62 131.763C146.621 131.8 146.615 131.837 146.601 131.872C146.587 131.906 146.566 131.937 146.539 131.963C146.474 132.019 146.394 132.052 146.309 132.059L146.63 132.425H146.383L146.087 132.061H145.991V132.425H145.784V131.453H146.234L146.231 131.452ZM146.167 132.76C146.275 132.761 146.383 132.739 146.482 132.696C146.578 132.655 146.665 132.596 146.739 132.522C146.813 132.448 146.872 132.361 146.913 132.265C146.998 132.061 146.998 131.832 146.913 131.629C146.872 131.533 146.813 131.446 146.739 131.372C146.665 131.298 146.578 131.239 146.482 131.197C146.382 131.156 146.275 131.136 146.167 131.137C146.057 131.136 145.947 131.157 145.845 131.197C145.747 131.238 145.658 131.297 145.582 131.372C145.469 131.488 145.392 131.636 145.361 131.796C145.331 131.956 145.348 132.121 145.411 132.271C145.45 132.368 145.508 132.455 145.582 132.528C145.658 132.603 145.747 132.662 145.845 132.702C145.947 132.746 146.056 132.768 146.167 132.767M146.167 130.903C146.449 130.903 146.72 131.014 146.922 131.212C147.019 131.307 147.096 131.42 147.149 131.545C147.204 131.674 147.232 131.812 147.232 131.952C147.232 132.091 147.204 132.23 147.149 132.358C147.095 132.482 147.018 132.596 146.922 132.691C146.823 132.786 146.708 132.862 146.583 132.916C146.451 132.972 146.31 133.001 146.167 133C146.022 133.001 145.878 132.973 145.745 132.916C145.618 132.863 145.502 132.787 145.404 132.691C145.308 132.592 145.232 132.475 145.18 132.347C145.125 132.219 145.096 132.08 145.096 131.941C145.096 131.801 145.125 131.663 145.18 131.534C145.233 131.409 145.31 131.296 145.407 131.201C145.504 131.103 145.62 131.027 145.748 130.976C145.882 130.92 146.025 130.891 146.17 130.892M47.7708 127.148C47.7708 125.294 48.9853 123.771 50.9703 123.771C52.8673 123.771 54.1474 125.229 54.1474 127.148C54.1474 129.068 52.8673 130.525 50.9703 130.525C48.9853 130.525 47.7708 129.002 47.7708 127.148ZM56.3098 127.148V121.873H54.0163V123.158C53.2889 122.208 52.1855 121.612 50.685 121.612C47.729 121.612 45.4092 123.931 45.4092 127.151C45.4092 130.371 47.7278 132.69 50.685 132.69C52.1849 132.69 53.2889 132.093 54.0163 131.144V132.425H56.3072V127.148H56.3098ZM133.803 127.148C133.803 125.294 135.017 123.771 137.003 123.771C138.902 123.771 140.18 125.229 140.18 127.148C140.18 129.068 138.902 130.525 137.003 130.525C135.018 130.525 133.803 129.002 133.803 127.148ZM142.344 127.148V117.638H140.049V123.158C139.322 122.208 138.218 121.612 136.718 121.612C133.762 121.612 131.442 123.931 131.442 127.151C131.442 130.371 133.76 132.69 136.718 132.69C138.218 132.69 139.322 132.093 140.049 131.144V132.425H142.344V127.148ZM84.7746 123.663C86.2526 123.663 87.2017 124.59 87.444 126.221H81.9716C82.2164 124.698 83.1411 123.663 84.7753 123.663M84.8209 121.607C81.7299 121.607 79.5676 123.856 79.5676 127.145C79.5676 130.499 81.8167 132.684 84.9745 132.684C86.563 132.684 88.0178 132.287 89.2979 131.206L88.174 129.506C87.2898 130.213 86.1639 130.609 85.1056 130.609C83.6276 130.609 82.2819 129.925 81.951 128.026H89.7824C89.8049 127.741 89.8281 127.453 89.8281 127.145C89.8049 123.856 87.7717 121.606 84.8196 121.606M112.509 127.145C112.509 125.291 113.724 123.768 115.709 123.768C117.606 123.768 118.886 125.225 118.886 127.145C118.886 129.064 117.606 130.521 115.709 130.521C113.724 130.521 112.509 128.998 112.509 127.145M121.048 127.145V121.873H118.756V123.158C118.026 122.208 116.925 121.612 115.424 121.612C112.468 121.612 110.149 123.931 110.149 127.151C110.149 130.371 112.467 132.69 115.424 132.69C116.925 132.69 118.026 132.093 118.756 131.144V132.425H121.048V127.148L121.048 127.145ZM99.5578 127.145C99.5578 130.344 101.785 132.683 105.184 132.683C106.773 132.683 107.831 132.33 108.976 131.426L107.874 129.572C107.013 130.19 106.109 130.521 105.111 130.521C103.28 130.499 101.934 129.175 101.934 127.145C101.934 125.114 103.28 123.791 105.111 123.768C106.107 123.768 107.011 124.099 107.874 124.717L108.976 122.863C107.829 121.959 106.771 121.606 105.184 121.606C101.785 121.606 99.5578 123.944 99.5578 127.145ZM129.124 121.606C127.801 121.606 126.939 122.225 126.343 123.151V121.873H124.071V132.419H126.367V126.507C126.367 124.762 127.117 123.792 128.616 123.792C129.107 123.785 129.594 123.875 130.05 124.057L130.757 121.896C130.249 121.696 129.587 121.608 129.123 121.608M67.6485 122.711C66.5452 121.984 65.0248 121.608 63.3476 121.608C60.6756 121.608 58.9554 122.889 58.9554 124.984C58.9554 126.704 60.2361 127.765 62.5944 128.096L63.6779 128.25C64.9355 128.427 65.5292 128.757 65.5292 129.353C65.5292 130.169 64.6938 130.634 63.1252 130.634C61.5367 130.634 60.3903 130.126 59.6172 129.531L58.5396 131.319C59.7972 132.246 61.3857 132.688 63.106 132.688C66.1519 132.688 67.9171 131.253 67.9171 129.245C67.9171 127.391 66.5278 126.422 64.2324 126.091L63.1516 125.934C62.1588 125.805 61.3632 125.605 61.3632 124.899C61.3632 124.127 62.1131 123.664 63.3713 123.664C64.7176 123.664 66.0208 124.171 66.6596 124.568L67.6524 122.714L67.6485 122.711ZM97.2412 121.61C95.918 121.61 95.0563 122.229 94.4632 123.155V121.873H92.1903V132.419H94.4837V126.507C94.4837 124.762 95.2337 123.792 96.7329 123.792C97.2238 123.785 97.7113 123.875 98.1672 124.057L98.874 121.896C98.3664 121.696 97.7045 121.608 97.2399 121.608M77.67 121.873H73.9197V118.673H71.6012V121.873H69.462V123.969H71.6012V128.78C71.6012 131.227 72.551 132.684 75.2641 132.684C76.2594 132.684 77.4059 132.376 78.1333 131.869L77.4708 129.905C76.7864 130.302 76.0365 130.502 75.4401 130.502C74.2937 130.502 73.9197 129.795 73.9197 128.736V123.971H77.67V121.873ZM43.3812 132.422V125.803C43.3812 123.31 41.7926 121.633 39.2319 121.61C37.8856 121.588 36.4969 122.007 35.5247 123.487C34.7972 122.317 33.6508 121.61 32.0392 121.61C30.9127 121.61 29.8119 121.941 28.9502 123.176V121.873H26.6548V132.419H28.9682V126.571C28.9682 124.741 29.9835 123.768 31.5514 123.768C33.0744 123.768 33.8449 124.76 33.8449 126.548V132.418H36.1634V126.57C36.1634 124.739 37.2218 123.766 38.7441 123.766C40.3102 123.766 41.0575 124.759 41.0575 126.547V132.416L43.3812 132.422Z" fill="#231F20"/>
<path d="M147.297 97.3394V95.7971H146.895L146.43 96.8555L145.968 95.7971H145.565V97.3394H145.851V96.1775L146.285 97.18H146.581L147.015 96.175V97.3394H147.298H147.297ZM144.749 97.3394V96.0612H145.263V95.801H143.949V96.0612H144.463V97.3394H144.746H144.749Z" fill="#F79410"/>
<path d="M101.648 103.953H66.8916V41.4921H101.648L101.648 103.953Z" fill="#FF5F00"/>
<path d="M69.0951 72.724C69.0951 60.0537 75.0276 48.767 84.2657 41.4934C77.273 35.9795 68.624 32.9869 59.7188 33C37.7822 33 20 50.7848 20 72.724C20 94.6632 37.7822 112.448 59.7188 112.448C68.6242 112.461 77.2734 109.469 84.2664 103.955C75.0289 96.6823 69.0951 85.3949 69.0951 72.724Z" fill="#EB001B"/>
<path d="M148.537 72.7242C148.537 94.6635 130.755 112.448 108.818 112.448C99.912 112.461 91.2618 109.469 84.2676 103.955C93.5082 96.6812 99.4408 85.3951 99.4408 72.7242C99.4408 60.0533 93.5082 48.7673 84.2676 41.4936C91.2617 35.9799 99.9116 32.9874 108.818 33.0003C130.754 33.0003 148.537 50.785 148.537 72.7242" fill="#F79E1B"/>
</svg>
