<svg width="80" height="40" viewBox="0 0 167 167" fill="none" xmlns="http://www.w3.org/2000/svg">
<path fill-rule="evenodd" clip-rule="evenodd" d="M4.53271 45.6139C4.53271 38.9865 9.9053 33.6139 16.5327 33.6139H149.982C156.609 33.6139 161.982 38.9865 161.982 45.6139V120.386C161.982 127.014 156.609 132.386 149.982 132.386H16.5327C9.90531 132.386 4.53271 127.014 4.53271 120.386V45.6139Z" fill="white"/>
<path fill-rule="evenodd" clip-rule="evenodd" d="M162.514 44.3907C162.514 36.7771 158.557 33 150.882 33H15.6313C11.7949 33 8.97687 34.0193 7.11796 36.1171C5.02011 38.2158 4 40.9135 4 44.3907V121.609C4 125.086 5.02011 127.724 7.11796 129.882C9.2768 131.981 12.0347 133 15.6313 133H150.882C158.557 133 162.514 129.164 162.514 121.61V44.3907ZM150.882 34.7988C157.237 34.7988 160.475 38.0362 160.475 44.3907V121.609C160.475 128.023 157.237 131.2 150.882 131.2H15.6313C12.5735 131.2 10.2359 130.301 8.49731 128.503C6.69856 126.763 5.7996 124.365 5.7996 121.608V44.3907C5.7996 38.0362 8.97687 34.7988 15.6313 34.7988H150.882Z" fill="#315881"/>
<path fill-rule="evenodd" clip-rule="evenodd" d="M16.7098 39.2351C14.1324 39.2351 12.5133 39.6545 11.6143 40.5543C10.8348 41.5736 10.4756 43.252 10.4756 45.71V62.4359H156.038V45.71C156.038 41.3338 153.879 39.2351 149.563 39.2351H16.7098Z" fill="#315881"/>
<path fill-rule="evenodd" clip-rule="evenodd" d="M10.4756 120.05C10.4756 124.485 12.5734 126.764 16.7098 126.764H149.563C153.879 126.764 156.038 124.486 156.038 120.05V103.323H10.4756V120.05Z" fill="#DFA43B"/>
<path fill-rule="evenodd" clip-rule="evenodd" d="M58.6771 69.5707C58.6771 70.3502 58.5568 70.9492 58.2577 71.3695L47.766 89.6553L47.106 67.3526H30.3198L35.955 70.0503C37.5733 71.0695 38.413 72.3879 38.413 74.0672L39.9711 97.7493H48.1845L67.8497 67.3526H57.7782C58.3772 67.8923 58.6771 68.7311 58.6771 69.5707ZM126.544 68.2515L127.202 67.3517H116.95C117.309 67.711 117.429 67.8914 117.429 68.0109C117.308 68.4896 117.069 68.7904 116.95 69.1496L102.022 96.3673C101.663 96.8469 101.302 97.2671 100.883 97.7476H109.336L108.916 96.8478C108.916 96.0683 109.336 94.6304 110.235 92.5919L112.034 89.2342H120.727C121.088 92.0522 121.328 94.3907 121.447 96.1301L120.727 97.7484H131.219L129.66 95.4701L126.544 68.2515ZM120.308 84.9783H114.073L119.408 74.7264L120.308 84.9783ZM94.4082 65.7936C91.1717 65.7936 88.413 66.6934 85.955 68.4913C83.2565 70.0503 81.9381 72.0286 81.9381 74.4874C81.9381 77.3055 82.8972 79.7634 84.8154 81.6214L90.632 85.6375C92.7307 87.1372 93.7499 88.4555 93.7499 89.6553C93.7499 90.794 93.2085 91.8133 92.1909 92.5928C91.1717 93.3722 90.0312 93.7315 88.5934 93.7315C86.4947 93.7315 82.8981 92.2335 77.922 89.4757V95.0507C81.8186 97.3892 85.5966 98.5889 89.2526 98.5889C92.7306 98.5889 95.6681 97.6289 98.1871 95.4709C100.885 93.4917 102.203 91.1549 102.203 88.5767C102.203 86.417 101.243 84.4395 99.0852 82.3408L93.5084 78.3239C91.6521 76.825 90.632 75.5058 90.632 74.4874C90.632 72.1498 92.0105 70.9501 94.8285 70.9501C96.7467 70.9501 99.5647 72.0295 103.341 74.3078L104.481 68.4921C101.302 66.6925 98.0058 65.7936 94.4082 65.7936ZM72.1064 97.7484C71.9861 96.4894 71.7463 95.3506 71.626 94.1509L79.2404 69.5707L81.0392 67.3526H70.0678C70.1882 67.8923 70.3076 68.6116 70.4279 69.1513C70.4279 69.691 70.4279 70.351 70.3076 70.9501L62.694 95.2905L61.1351 97.7493H72.1064V97.7484Z" fill="#315881"/>
</svg>
